<?xml version="1.0" encoding="utf-8"?>
<!-- Generator: Adobe Illustrator 25.0.0, SVG Export Plug-In . SVG Version: 6.00 Build 0)  -->
<svg version="1.1" xmlns="http://www.w3.org/2000/svg" xmlns:xlink="http://www.w3.org/1999/xlink" x="0px" y="0px"
	 viewBox="0 0 715 169" style="enable-background:new 0 0 715 169;" xml:space="preserve">
<style type="text/css">
	.st0{display:none;}
	.st1{display:inline;}
	.st2{fill:#7CCE59;}
	.st3{fill:#FFFFFF;}
	.st4{fill:#2E3192;}
	.st5{fill:#B6D994;}
	.st6{fill:#009542;}
	.st7{fill:#87C663;}
	.st8{fill:#48B749;}
	.st9{display:inline;fill:#C3922E;}
	.st10{display:inline;fill:#E2C675;}
	.st11{display:inline;fill:#FBCC34;}
	.st12{display:inline;fill:#F4E09C;}
	.st13{display:inline;fill:#CDA349;}
	.st14{fill:#4E73DF;stroke:#CBD8F4;stroke-miterlimit:10;}
	.st15{fill:#82A4F9;stroke:#CBD8F4;stroke-miterlimit:10;}
	.st16{fill:#224ABE;stroke:#CBD8F4;stroke-miterlimit:10;}
	.st17{fill:#CBD8F4;stroke:#CBD8F4;stroke-miterlimit:10;}
	.st18{fill:#82A4F9;}
	.st19{fill:#CBD8F4;}
	.st20{fill:#224ABE;}
	.st21{fill:#4E73DF;}
</style>
<g id="Layer_1" class="st0">
	<path id="XMLID_824_" class="st9" d="M654,133.3c5,0,8.9-1.1,10.1-3.3c1.3-2.2,1.9-8.2,1.9-18V69.5l-12,2.1V133.3z"/>
	<path id="XMLID_822_" class="st10" d="M304.9,62.8l3.9,49.8C310.2,87,313.7,53,319.4,12h18.2l1.9-13.7L301,12.9L304.9,62.8z"/>
	<polygon id="XMLID_820_" class="st11" points="232,69 234.6,69 249.6,41 232,41 	"/>
	<polygon id="XMLID_818_" class="st12" points="300.9,12 301,13 339.5,-1.8 343.7,-30.9 285.3,-24.9 265.5,12 	"/>
	<path id="XMLID_816_" class="st13" d="M117.1,41H102V30.7L86.1,19.9c1.7,1.7,2.8,3.5,3.7,5.5c2.3,4.9,3.2,13.1,3.2,24.8V56H58V45.1
		c0-5.1-0.5-8.3-1.4-9.7c-0.9-1.4-2.5-2.1-4.6-2.1c-2.3,0-4.1,0.9-5.2,2.8C45.6,38,45,40.9,45,44.7c0,4.9,0.7,8.6,2,11.1
		s4.9,5.5,10.8,9c17,10.1,27.7,18.4,32.1,24.9c0.6,0.9,1.2,2,1.8,3l7.1-2.7l24-45L117.1,41z"/>
	<polygon id="XMLID_814_" class="st11" points="117.1,41 123,44.9 125,41.5 125,41 	"/>
	<polygon id="XMLID_812_" class="st13" points="163,65.5 163,72 194,93.3 194,53.5 	"/>
	<polygon id="XMLID_810_" class="st10" points="190.3,150.5 194,149.8 194,143.6 	"/>
	<polygon id="XMLID_808_" class="st12" points="260.4,138.6 260.8,138.5 260.4,138.2 	"/>
	<polygon id="XMLID_806_" class="st11" points="265.6,26.3 258,29.2 258,41 249.6,41 234.6,69 256,69 256,97 232,97 232,119.2 
		246.9,129 260,129 260,138.2 260.6,138.5 278.1,135.5 	"/>
	<polygon id="XMLID_804_" class="st13" points="260.8,138.5 280.1,151.5 278.2,135.5 	"/>
	<polygon id="XMLID_802_" class="st10" points="194,93.3 163,72 163,155.2 190.5,150.5 194,143.6 	"/>
	<path id="XMLID_800_" class="st10" d="M86.1,19.9L102,30.7V12h38.6l12.5-23.7L57.4-2.3l-1.7,1.6l21.1,14.3
		C80.6,15.5,83.7,17.5,86.1,19.9z"/>
	<polygon id="XMLID_798_" class="st10" points="185,12 185,41 163,41 163,65.5 194,53.5 194,12 258,12 258,25.6 264.2,14.4 
		263.8,12 265.5,12 285.3,-24.9 153.1,-11.6 140.6,12 	"/>
	<path id="XMLID_796_" class="st11" d="M76.1,13.3c0.2,0.1,0.4,0.2,0.7,0.3L55.6-0.7l-9.8,9.3c1.6-0.1,3.2-0.2,4.9-0.2
		C60.6,8.5,69.1,10.1,76.1,13.3z"/>
	<path id="XMLID_794_" class="st11" d="M125,80.1l-26,9.8l-4.8,8.9c1.7,5.9,2.5,13.2,2.5,22.1c0,10.5-1.3,18.2-3.7,23.1
		c-2.5,5-7.2,9.1-14.2,12.5c-5.3,2.5-11.3,4.1-17.9,4.7l-6.7,12.2l89.5-15.5H125V80.1z"/>
	<path id="XMLID_792_" class="st10" d="M47.4,134.3c1,1.6,2.7,2.4,5.3,2.4s4.4-1,5.7-3c1.2-2,1.9-5,1.9-8.9c0-8.7-1.2-14.3-3.5-17
		c-0.4-0.4-0.8-0.9-1.3-1.3l-9.4,3.6v13.6C46,129.2,46.4,132.8,47.4,134.3z"/>
	<polygon id="XMLID_790_" class="st13" points="258,25.6 258,29.2 265.6,26.3 264.2,14.1 	"/>
	<path id="XMLID_788_" class="st11" d="M554,36.7v32.7c4,0,7-0.6,8.7-1.8c1.7-1.2,2.3-5,2.3-11.5V48c0-4.7-0.5-7.7-2.2-9.2
		C561.1,37.4,558,36.7,554,36.7z"/>
	<path id="XMLID_786_" class="st10" d="M553.6-32l-4.4,43.5v0.2c-1.8,0-3.7,0.2-5.7,0.2c-0.4,0-0.7,0-1.1,0H515V95l-15.1,2.8l0,0
		h-0.1l0,0v-0.2L487,12h-25.4l15-44H553.6z"/>
	<polygon id="XMLID_785_" class="st10" points="476.7,-32 461.7,12 431.8,12 429.9,26 429.9,26.2 429.9,26.1 429.9,26.1 
		394.5,-22.8 394.5,-22.8 418.1,-32 	"/>
	<path id="XMLID_784_" class="st11" d="M615,65v13l-30.5,5.2c-0.1,0-0.3-0.1-0.4-0.1c-1.4-0.5-2.8-1-4.5-1.4c0,0,0,0,0.1,0
		c7.3-0.7,12.5-2.6,15.5-5.7c0.4-0.4,0.8-0.9,1.2-1.4c0.2-0.3,0.3-0.5,0.5-0.8s0.3-0.6,0.5-0.9c0.1-0.2,0.1-0.3,0.2-0.5
		c0.2-0.3,0.3-0.6,0.4-1c1.7-4.3,2.6-11,2.6-19.9c0-12.5-2-21.6-6-27.4c-4-5.7-9.2-9.3-15.6-10.7c-0.4-0.1-0.7-0.2-1.1-0.2
		s-0.8-0.1-1.2-0.2c-0.2,0-0.4-0.1-0.6-0.1c-0.4-0.1-0.9,0.1-1.3,0.1c-5.8-0.8-14.4-1.1-25.5-1.1l0,0l4.4-44h14.5L615,65z"/>
	<path id="XMLID_783_" class="st13" d="M453.6,106h13.2c-0.1-1-0.2-1.7-0.3-2.6l-12.8,2.2C453.6,105.7,453.6,106,453.6,106z"/>
	<path id="XMLID_782_" class="st12" d="M654,71.5l12-2.1V54.9c0-2.7-0.2-5-0.2-6.9l-9.7-11.3c-0.7,0-2.1-0.1-2.1-0.1V71.5z"/>
	<path id="XMLID_781_" class="st13" d="M461,44.3c-1,7.4-1.9,14.3-2.8,20.7l5.1,7.1C462.5,63.4,461.7,54.2,461,44.3z"/>
	<path id="XMLID_780_" class="st11" d="M458.2,65c-2.3,17.6-3.8,31.1-4.5,40.7l12.8-2.2c-1.1-9.3-2.1-19.8-3.2-31.4L458.2,65z"/>
	<path id="XMLID_779_" class="st13" d="M332.9,126.2l11.8-2c-2-13.4-3.9-27.7-5.7-42.8C337.9,90,335.9,104.9,332.9,126.2z"/>
	<polygon id="XMLID_778_" class="st10" points="314,174.1 316.4,158 290.3,158 	"/>
	<polygon id="XMLID_777_" class="st10" points="533.3,168 534.3,158 526,158 	"/>
	<polygon id="XMLID_775_" class="st10" points="125,46 125,41.5 123.2,44.8 	"/>
	<polygon id="XMLID_774_" class="st9" points="246.9,129 232,119.2 232,129 	"/>
	<path id="XMLID_772_" class="st11" d="M94,98.8l4.7-8.9l-7.1,2.7C92.6,94.5,93.4,96.5,94,98.8z"/>
	<path id="XMLID_771_" class="st10" d="M665.1,42.1c-0.4-1.9-1.4-3.3-2.9-4.1c-1.2-0.7-3.4-1.1-6.3-1.3l9.8,11.3
		C665.5,45.2,665.4,43.2,665.1,42.1z"/>
	<polygon id="XMLID_770_" class="st11" points="123,44.8 99.1,89.9 125,80.1 125,46 	"/>
	<path id="XMLID_768_" class="st13" d="M13.5,25.1c2.9-5.2,7.5-9.3,13.9-12.2c5.2-2.4,11.4-3.8,18.3-4.2l9.8-9.3L53.9-2L-15,4.9v62
		L9.6,43.3C10.1,35.3,11.3,29.2,13.5,25.1z"/>
	<polygon id="XMLID_767_" class="st9" points="9.7,-32 -15,-32 -15,4.9 53.9,-2.1 	"/>
	<path id="XMLID_766_" class="st9" d="M592.9,158L579,202h-21.5l-24.2-33.7l1-10.3H554V92.2c5,0,8.2,0.9,9.5,2.8
		c1.2,1.9,1.5,6.8,1.5,14.6V158H592.9z"/>
	<polygon id="XMLID_765_" class="st10" points="660.5,158 650.7,202 682.4,202 661.1,158 	"/>
	<polygon id="XMLID_764_" class="st13" points="615,158 615,88.1 601,134.3 601,158 592.9,158 579,202 650.7,202 660.5,158 	"/>
	<polygon id="XMLID_762_" class="st10" points="529.9,202 557.5,202 533.3,168.6 	"/>
	<path id="XMLID_761_" class="st11" d="M60.7,161.2c-2.1,0.2-4.3,0.3-6.6,0.3c-10.2,0-19-1.9-26.2-5.8c-7.2-3.9-12-8.8-14.2-14.8
		c-1.7-4.4-2.5-10.2-2.9-17.4l-25.8,10v52.1l69.3-11.8L60.7,161.2z"/>
	<path id="XMLID_760_" class="st10" d="M10,115.4V106h36v4.1l9.4-3.6c-3-2.7-8.5-6.7-16.5-12C29.4,88.2,23.1,83.6,20,80.8
		C16.9,78,14.4,74,12.3,69c-2-5-3-11.4-3-19.2c0-2.3,0.3-4.5,0.4-6.5L-15,66.9v66.6l25.6-9.9C10.5,121,10,118.3,10,115.4z"/>
	<polygon id="XMLID_757_" class="st11" points="634.1,12 615,12 615,65 568.1,-32 596.6,-32 	"/>
	<path id="XMLID_753_" class="st13" d="M644,12c18.5,0,30.9,0.6,37.4,2.3c4.2,1.1,7.7,2.5,10.6,4.4L703.4-32h-49.5L640,12H644z"/>
	<path id="XMLID_752_" class="st13" d="M696.3,22.4c3.4,3.9,5.5,8.2,6.4,12.9c0.8,4.7,1.5,13.9,1.5,27.6l24.9-4.2V-32h-25.6
		L692,18.6C693.7,19.7,695.1,21,696.3,22.4z"/>
	<polygon id="XMLID_751_" class="st10" points="640,12 653.9,-32 596.6,-32 634.1,12 	"/>
	<polygon id="XMLID_750_" class="st11" points="290.3,158 280.9,158 280.1,151.3 260.6,138.4 260,138.6 260,158 194,158 194,149.8 
		190.4,150.5 162.7,202 310.1,202 314,174.4 	"/>
	<polygon id="XMLID_749_" class="st11" points="499.7,97.8 504.2,128.8 515,143.8 515,95.1 	"/>
	<polygon id="XMLID_748_" class="st10" points="526,158 515,158 515,143.8 504.3,128.5 508.9,158 469.8,158 467.8,132 454.1,132 
		451.8,158 412.3,158 413.2,151.9 395.9,202 529.9,202 533.3,168.3 	"/>
	<path id="XMLID_747_" class="st10" d="M704,114.8c0,13.2-0.6,22-1.9,26.5c-1.2,4.4-3.4,7.9-6.5,10.4s-6.9,4-11.4,5
		s-11.4,1.3-20.5,1.3h-2.5l21.2,44H729v-81l-25-28.5V114.8z"/>
	<path id="XMLID_746_" class="st11" d="M418.5,111.6L418.5,111.6l-5.3,40l0,0v0.3v0.1v0.1l0,0L396,202h-41.6L314,174.4l2.3-16.4h12
		c0.8-5.3,1.5-10.2,2.1-15c0.9-5.9,1.6-11.5,2.4-16.7c0-0.1,0-0.2,0-0.4l0,0l0.1,0.1l0,0l11.7-2l0,0l0,0c0,0.1,0,0.2,0,0.2
		c1.3,8.2,2.6,16.4,3.9,23.9c0.6,3.5,1.3,6.8,1.9,9.9h47.7l5.1-43.5l0.1-0.5l0,0l0,0L418.5,111.6z"/>
	<polygon id="XMLID_745_" class="st11" points="163,155.2 163,158 143.6,158 54.1,173.5 39,202 162.7,202 190.6,150.5 	"/>
	<path id="XMLID_744_" class="st12" d="M584.5,83.3c4.8,1.6,8.2,3.7,10.2,6c2.6,3.1,4.4,6,5.1,8.7c0.6,2.6,1.2,9.9,1.2,21.7v14.5
		L615,88V78L584.5,83.3z"/>
	<path id="XMLID_743_" class="st12" d="M704,63c0,0.1,0,0.2,0,0.4v29.1l25,28.5V58.8L704,63z"/>
	<path id="XMLID_742_" class="st10" d="M394.5-22.9L339.6-1.7l-2,13.7h21.5c0.5,4,1.9,20.2,4.2,48.2l4.2,56
		c2.2-35.6,5.7-70.2,10.7-104.2h37.1l-11.9,102.4l15.2-2.7L429.9,26L394.5-22.9z"/>
	<path id="XMLID_741_" class="st11" d="M27.5,12.9c-6.4,2.9-11.1,7-13.9,12.2c-2.3,4.1-3.7,10.2-4.1,18.2L45.9,8.7
		C38.8,9.1,32.7,10.5,27.5,12.9z"/>
	<path id="XMLID_740_" class="st10" d="M27.5,12.9c-6.4,2.9-11.1,7-13.9,12.2c-2.3,4.1-3.7,10.2-4.1,18.2L45.9,8.7
		C38.8,9.1,32.7,10.5,27.5,12.9z"/>
	<path id="XMLID_739_" class="st11" d="M46,106H10v9.4c0,2.9,0.3,5.6,0.5,8.1L46,110.1V106z"/>
	<path id="XMLID_738_" class="st12" d="M46,106H10v9.4c0,2.9,0.3,5.6,0.5,8.1L46,110.1V106z"/>
	<path id="XMLID_737_" class="st9" d="M91.7,92.6l-36.3,13.9c0.5,0.5,1,0.9,1.4,1.3c2.4,2.7,3.5,8.3,3.5,17c0,3.9-0.6,6.9-1.9,8.9
		c-1.2,2-3.1,3-5.7,3s-4.3-0.8-5.3-2.4c-1-1.6-1.4-5.1-1.4-10.6v-13.6l-35.3,13.4c0.4,7.2,1.4,13,3.1,17.4c2.2,6,7,10.9,14.2,14.8
		c7.2,3.9,16,5.8,26.2,5.8c2.3,0,4.4-0.1,6.6-0.3l33.3-62.4C93.4,96.5,92.6,94.5,91.7,92.6z"/>
	<path id="XMLID_736_" class="st10" d="M91.7,92.6l-36.3,13.9c0.5,0.5,1,0.9,1.4,1.3c2.4,2.7,3.5,8.3,3.5,17c0,3.9-0.6,6.9-1.9,8.9
		c-1.2,2-3.1,3-5.7,3s-4.3-0.8-5.3-2.4c-1-1.6-1.4-5.1-1.4-10.6v-13.6l-35.3,13.4c0.4,7.2,1.4,13,3.1,17.4c2.2,6,7,10.9,14.2,14.8
		c7.2,3.9,16,5.8,26.2,5.8c2.3,0,4.4-0.1,6.6-0.3l33.3-62.4C93.4,96.5,92.6,94.5,91.7,92.6z"/>
	<path id="XMLID_735_" class="st11" d="M92.9,144c2.5-5,3.7-12.7,3.7-23.1c0-8.9-0.8-16.2-2.5-22.1l-33.3,62.4
		c6.6-0.6,12.6-2.2,17.9-4.7C85.7,153.2,90.4,149,92.9,144z"/>
	<path id="XMLID_734_" class="st13" d="M92.9,144c2.5-5,3.7-12.7,3.7-23.1c0-8.9-0.8-16.2-2.5-22.1l-33.3,62.4
		c6.6-0.6,12.6-2.2,17.9-4.7C85.7,153.2,90.4,149,92.9,144z"/>
	<path id="XMLID_733_" class="st10" d="M89.9,89.6c-4.4-6.5-15.1-14.8-32.1-24.9c-5.9-3.5-9.5-6.5-10.8-9s-2-6.2-2-11.1
		c0-3.8,0.6-6.7,1.8-8.5c1.2-1.9,2.9-2.8,5.2-2.8c2.1,0,3.7,0.7,4.6,2.1S58,40,58,45.1V56h35v-5.8c0-11.7-1-19.9-3.2-24.8
		c-0.9-2-2.1-3.8-3.8-5.5l-9.3-6.3c-0.2-0.1-0.4-0.2-0.6-0.3c-7-3.2-15.4-4.8-25.4-4.8c-1.7,0-3.3,0.1-4.9,0.2L9.4,43.2
		c-0.1,2-0.2,4.2-0.2,6.5c0,7.8,1,14.2,3,19.2s4.6,9,7.7,11.8s9.4,7.4,18.9,13.7c8.1,5.3,13.6,9.3,16.5,12l36.3-13.9
		C91.1,91.5,90.5,90.5,89.9,89.6z"/>
	<path id="XMLID_732_" class="st13" d="M89.9,89.6c-4.4-6.5-15.1-14.8-32.1-24.9c-5.9-3.5-9.5-6.5-10.8-9s-2-6.2-2-11.1
		c0-3.8,0.6-6.7,1.8-8.5c1.2-1.9,2.9-2.8,5.2-2.8c2.1,0,3.7,0.7,4.6,2.1S58,40,58,45.1V56h35v-5.8c0-11.7-1-19.9-3.2-24.8
		c-0.9-2-2.1-3.8-3.8-5.5l-9.3-6.3c-0.2-0.1-0.4-0.2-0.6-0.3c-7-3.2-15.4-4.8-25.4-4.8c-1.7,0-3.3,0.1-4.9,0.2L9.4,43.2
		c-0.1,2-0.2,4.2-0.2,6.5c0,7.8,1,14.2,3,19.2s4.6,9,7.7,11.8s9.4,7.4,18.9,13.7c8.1,5.3,13.6,9.3,16.5,12l36.3-13.9
		C91.1,91.5,90.5,90.5,89.9,89.6z"/>
	<path id="XMLID_731_" class="st11" d="M86.1,19.9c-2.4-2.4-5.5-4.5-9.3-6.3L86.1,19.9z"/>
	<path id="XMLID_730_" class="st10" d="M86.1,19.9c-2.4-2.4-5.5-4.5-9.3-6.3L86.1,19.9z"/>
	<polygon id="XMLID_729_" class="st10" points="125,41 125,41.5 140.6,12 102,12 102,30.7 117.1,41 	"/>
	<polygon id="XMLID_728_" class="st11" points="125,41 125,41.5 140.6,12 102,12 102,30.7 117.1,41 	"/>
	<polygon id="XMLID_727_" class="st11" points="117.1,41 102,30.7 102,41 	"/>
	<polygon id="XMLID_726_" class="st11" points="117.1,41 102,30.7 102,41 	"/>
	<polygon id="XMLID_725_" class="st13" points="157,67.8 125,80.1 125,158 143.6,158 163,155.2 163,72 	"/>
	<polygon id="XMLID_724_" class="st13" points="157,67.8 125,80.1 125,158 143.6,158 163,155.2 163,72 	"/>
	<polygon id="XMLID_723_" class="st11" points="163,158 163,155.2 143.6,158 	"/>
	<polygon id="XMLID_722_" class="st13" points="163,158 163,155.2 143.6,158 	"/>
	<polygon id="XMLID_721_" class="st13" points="156.9,67.8 163,72 163,65.5 	"/>
	<polygon id="XMLID_720_" class="st9" points="156.9,67.8 163,72 163,65.5 	"/>
	<polygon id="XMLID_719_" class="st10" points="125,80.1 157.1,67.8 125,46 	"/>
	<polygon id="XMLID_718_" class="st10" points="125,80.1 157.1,67.8 125,46 	"/>
	<polygon id="XMLID_717_" class="st13" points="163,41 185,41 185,12 140.6,12 125,41.5 125,46 157,67.8 163,65.5 	"/>
	<polygon id="XMLID_716_" class="st12" points="163,41 185,41 185,12 140.6,12 125,41.5 125,46 157,67.8 163,65.5 	"/>
	<polygon id="XMLID_715_" class="st11" points="194,158 260,158 260,138.6 194,149.8 	"/>
	<polygon id="XMLID_714_" class="st12" points="194,158 260,158 260,138.6 194,149.8 	"/>
	<polygon id="XMLID_713_" class="st10" points="260,129 246.9,129 260,138.2 	"/>
	<polygon id="XMLID_712_" class="st9" points="260,129 246.9,129 260,138.2 	"/>
	<polygon id="XMLID_711_" class="st9" points="255.6,30.1 258,29.2 258,25.6 	"/>
	<polygon id="XMLID_710_" class="st11" points="255.6,30.1 258,29.2 258,25.6 	"/>
	<polygon id="XMLID_709_" class="st13" points="232,119.2 232,97 256,97 256,69 234.6,69 213.9,106.9 	"/>
	<polygon id="XMLID_708_" class="st13" points="232,119.2 232,97 256,97 256,69 234.6,69 213.9,106.9 	"/>
	<polygon id="XMLID_707_" class="st11" points="194,53.5 194,93.3 214,106.9 234.6,69 232,69 232,41 249.6,41 255.4,30.2 	"/>
	<polygon id="XMLID_706_" class="st11" points="194,53.5 194,93.3 214,106.9 234.6,69 232,69 232,41 249.6,41 255.4,30.2 	"/>
	<polygon id="XMLID_705_" class="st10" points="246.9,129 232,129 232,119.2 213.8,106.8 194,143.6 194,149.8 260,138.6 260,138.2 	
		"/>
	<polygon id="XMLID_704_" class="st11" points="246.9,129 232,129 232,119.2 213.8,106.8 194,143.6 194,149.8 260,138.6 260,138.2 	
		"/>
	<polygon id="XMLID_703_" class="st10" points="249.6,41 258,41 258,29.2 255.5,30.2 	"/>
	<polygon id="XMLID_702_" class="st12" points="249.6,41 258,41 258,29.2 255.5,30.2 	"/>
	<polygon id="XMLID_701_" class="st9" points="194,143.6 213.9,106.8 194,93.3 	"/>
	<polygon id="XMLID_700_" class="st11" points="194,143.6 213.9,106.8 194,93.3 	"/>
	<polygon id="XMLID_699_" class="st11" points="258,25.6 258,12 194,12 194,53.5 255.4,30.1 	"/>
	<polygon id="XMLID_698_" class="st10" points="258,25.6 258,12 194,12 194,53.5 255.4,30.1 	"/>
	<polygon id="XMLID_697_" class="st10" points="300.9,12 265.5,12 264.1,14.4 265.5,26.4 301,13.1 	"/>
	<polygon id="XMLID_696_" class="st10" points="300.9,12 265.5,12 264.1,14.4 265.5,26.4 301,13.1 	"/>
	<path id="XMLID_695_" class="st10" d="M308.9,112.6L305,62.9l-4-50.1l-35.5,13.5l12.7,109.2l42.5-7L337.6,12h-18.2
		C313.8,53,310.3,86.9,308.9,112.6z"/>
	<path id="XMLID_694_" class="st13" d="M308.9,112.6L305,62.9l-4-50.1l-35.5,13.5l12.7,109.2l42.5-7L337.6,12h-18.2
		C313.8,53,310.3,86.9,308.9,112.6z"/>
	<path id="XMLID_693_" class="st9" d="M316.4,158h12c1.7-12,3.2-22.5,4.6-32l-12.2,2L316.4,158z"/>
	<path id="XMLID_692_" class="st10" d="M316.4,158h12c1.7-12,3.2-22.5,4.6-32l-12.2,2L316.4,158z"/>
	<path id="XMLID_691_" class="st11" d="M350.5,158h47.7l5.1-44l-58.7,9.9C346.5,136,348.5,148,350.5,158z"/>
	<path id="XMLID_690_" class="st10" d="M350.5,158h47.7l5.1-44l-58.7,9.9C346.5,136,348.5,148,350.5,158z"/>
	<path id="XMLID_689_" class="st10" d="M378.1,12c-4.9,34-8.5,68.6-10.7,104.1l-4.2-55.8c-2.3-28-3.6-44.3-4.2-48.3h-21.5
		l-16.9,116.5l12.2-2.2c3-21.3,5-36.3,6.1-44.8c1.8,15.1,3.7,29.3,5.7,42.8l58.7-9.8l12-102.5H378.1z"/>
	<path id="XMLID_688_" class="st10" d="M378.1,12c-4.9,34-8.5,68.6-10.7,104.1l-4.2-55.8c-2.3-28-3.6-44.3-4.2-48.3h-21.5
		l-16.9,116.5l12.2-2.2c3-21.3,5-36.3,6.1-44.8c1.8,15.1,3.7,29.3,5.7,42.8l58.7-9.8l12-102.5H378.1z"/>
	<polygon id="XMLID_687_" class="st13" points="278.2,135.5 280.1,151.3 290.3,158 316.4,158 320.7,128 	"/>
	<polygon id="XMLID_686_" class="st13" points="278.2,135.5 280.1,151.3 290.3,158 316.4,158 320.7,128 	"/>
	<polygon id="XMLID_685_" class="st11" points="263.8,12 264.1,14.6 265.5,12 	"/>
	<polygon id="XMLID_684_" class="st10" points="263.8,12 264.1,14.6 265.5,12 	"/>
	<polygon id="XMLID_683_" class="st13" points="280.9,158 290.3,158 280.1,151.1 	"/>
	<polygon id="XMLID_682_" class="st13" points="280.9,158 290.3,158 280.1,151.1 	"/>
	<polygon id="XMLID_681_" class="st13" points="483.9,100.5 504.5,128.8 499.8,97.8 	"/>
	<polygon id="XMLID_680_" class="st11" points="483.9,100.5 504.5,128.8 499.8,97.8 	"/>
	<polygon id="XMLID_679_" class="st11" points="448,51 429.9,25.9 418.5,111.6 427.7,110.1 	"/>
	<polygon id="XMLID_678_" class="st11" points="448,51 429.9,25.9 418.5,111.6 427.7,110.1 	"/>
	<path id="XMLID_677_" class="st11" d="M466.5,103.4c0.1,0.9,0.2,1.6,0.3,2.6h-13.2c0,0,0-0.3,0-0.4l-26,4.4l-14.5,41.7l-0.9,6.2
		h39.5l2.3-26h13.7l2.1,26h39l-4.4-29.5l-20.5-28.2L466.5,103.4z"/>
	<path id="XMLID_676_" class="st12" d="M466.5,103.4c0.1,0.9,0.2,1.6,0.3,2.6h-13.2c0,0,0-0.3,0-0.4l-26,4.4l-14.5,41.7l-0.9,6.2
		h39.5l2.3-26h13.7l2.1,26h39l-4.4-29.5l-20.5-28.2L466.5,103.4z"/>
	<polygon id="XMLID_675_" class="st11" points="418.5,111.6 413.2,152 427.7,110.1 	"/>
	<polygon id="XMLID_674_" class="st12" points="418.5,111.6 413.2,152 427.7,110.1 	"/>
	<polygon id="XMLID_673_" class="st12" points="431.8,12 429.9,26.2 448,51.3 461.7,12 	"/>
	<polygon id="XMLID_672_" class="st11" points="431.8,12 429.9,26.2 448,51.3 461.7,12 	"/>
	<path id="XMLID_671_" class="st13" d="M466.5,103.4l17.5-3L463.3,72C464.4,83.7,465.4,94.1,466.5,103.4z"/>
	<path id="XMLID_670_" class="st12" d="M466.5,103.4l17.5-3L463.3,72C464.4,83.7,465.4,94.1,466.5,103.4z"/>
	<path id="XMLID_669_" class="st13" d="M461.7,12L448,51.2l10.1,13.9c0.8-6.4,1.7-13.3,2.8-20.7c0.8,9.9,1.6,19.1,2.4,27.7
		l20.6,28.4l15.9-2.5L487,12H461.7z"/>
	<path id="XMLID_668_" class="st13" d="M461.7,12L448,51.2l10.1,13.9c0.8-6.4,1.7-13.3,2.8-20.7c0.8,9.9,1.6,19.1,2.4,27.7
		l20.6,28.4l15.9-2.5L487,12H461.7z"/>
	<path id="XMLID_667_" class="st13" d="M448,51l-20.4,59.1l26-4.4c0.7-9.6,2.3-23.1,4.5-40.7L448,51z"/>
	<path id="XMLID_666_" class="st10" d="M448,51l-20.4,59.1l26-4.4c0.7-9.6,2.3-23.1,4.5-40.7L448,51z"/>
	<polygon id="XMLID_665_" class="st11" points="515,158 526,158 515,143.8 	"/>
	<polygon id="XMLID_664_" class="st12" points="515,158 526,158 515,143.8 	"/>
	<polygon id="XMLID_663_" class="st12" points="601,158 601,134.3 592.9,158 	"/>
	<polygon id="XMLID_662_" class="st11" points="601,158 601,134.3 592.9,158 	"/>
	<polygon id="XMLID_661_" class="st12" points="515,95.1 515,143.8 526,158 534.3,158 541,90.5 	"/>
	<polygon id="XMLID_660_" class="st11" points="515,95.1 515,143.8 526,158 534.3,158 541,90.5 	"/>
	<path id="XMLID_659_" class="st11" d="M542.4,12H515v83.1l26-4.4l8.1-78.9C546.9,11.8,544.8,12,542.4,12z"/>
	<path id="XMLID_658_" class="st10" d="M542.4,12H515v83.1l26-4.4l8.1-78.9C546.9,11.8,544.8,12,542.4,12z"/>
	<path id="XMLID_618_" class="st10" d="M594.6,24.3c-4-5.7-9.2-9.3-15.6-10.7c-0.4-0.1-0.7-0.2-1.1-0.2s-0.8-0.1-1.2-0.2
		c-0.2,0-0.4-0.1-0.6-0.1c-0.4-0.1-0.9-0.1-1.3-0.2c-0.5-0.1-1,0.1-1.5,0c-3.8-0.4-8.6-0.7-14.4-0.8c-0.6,0-1.2,0-1.8,0
		s-1.2,0-1.9,0c-1.3,0-2.6,0-3.9,0c-0.7,0-1.4,0-2.1,0l0,0l0,0l-8,78.5v0.1V91l28.8-5l0,0l7.1-1.5h0.2l6.2-1.3v-0.3h0.1h0.5
		c-1.1-0.4-2.4-0.6-3.6-1c0,0,0,0-0.1,0l0,0l0,0l0,0h-0.1c-0.2,0-0.4,0-0.6-0.1v0.1l0,0v-0.1c0.1,0,0.2,0,0.3,0
		c2.9-0.3,5.4-0.8,7.6-1.5c0.3-0.1,0.5-0.2,0.8-0.3c0,0,0.1-0.1,0.2-0.1c0.2,0,0.3-0.1,0.4-0.2c0.3-0.1,0.6-0.2,0.9-0.3
		c0.2-0.1,0.4-0.2,0.6-0.3l0,0c0.1,0,0.2-0.1,0.3-0.1c0.2-0.1,0.4-0.2,0.6-0.3c0.1,0,0.1-0.1,0.2-0.1c0.2-0.1,0.4-0.2,0.6-0.3
		c0.4-0.3,0.9-0.5,1.3-0.8c0.7-0.5,1.4-1,2-1.6c0.4-0.4,0.8-0.9,1.2-1.4c0.2-0.3,0.3-0.5,0.5-0.8s0.3-0.6,0.5-0.9
		c0.1-0.2,0.1-0.3,0.2-0.5c0.2-0.3,0.3-0.7,0.4-1c1.7-4.3,2.6-11,2.6-19.9C600.7,39.1,598.7,30,594.6,24.3z M554,36.7
		c4,0,7.2,0.7,8.8,2.2c1.7,1.5,2.2,4.5,2.2,9.2v8.1c0,6.5-0.5,10.3-2.3,11.5c-1.7,1.2-4.7,1.8-8.7,1.8V36.7z M584.2,83L584.2,83
		l0.2,0.1C584.3,83,584.2,83,584.2,83z M584.6,83L584.6,83l-0.2,0.1c0.1,0,0.2,0.1,0.3,0.1c0,0,0,0,0.1,0L584.6,83z"/>
	<path id="XMLID_491_" class="st12" d="M594.6,24.3c-4-5.7-9.2-9.3-15.6-10.7c-0.4-0.1-0.7-0.2-1.1-0.2s-0.8-0.1-1.2-0.2
		c-0.2,0-0.4-0.1-0.6-0.1c-0.4-0.1-0.9-0.1-1.3-0.2c-0.5-0.1-1,0.1-1.5,0c-3.8-0.4-8.6-0.7-14.4-0.8c-0.6,0-1.2,0-1.8,0
		s-1.2,0-1.9,0c-1.3,0-2.6,0-3.9,0c-0.7,0-1.4,0-2.1,0l0,0l0,0l-8,78.5v0.1V91l28.8-5l0,0l7.1-1.5h0.2l6.2-1.3v-0.3h0.1h0.5
		c-1.1-0.4-2.4-0.6-3.6-1c0,0,0,0-0.1,0l0,0l0,0l0,0h-0.1c-0.2,0-0.4,0-0.6-0.1v0.1l0,0v-0.1c0.1,0,0.2,0,0.3,0
		c2.9-0.3,5.4-0.8,7.6-1.5c0.3-0.1,0.5-0.2,0.8-0.3c0,0,0.1-0.1,0.2-0.1c0.2,0,0.3-0.1,0.4-0.2c0.3-0.1,0.6-0.2,0.9-0.3
		c0.2-0.1,0.4-0.2,0.6-0.3l0,0c0.1,0,0.2-0.1,0.3-0.1c0.2-0.1,0.4-0.2,0.6-0.3c0.1,0,0.1-0.1,0.2-0.1c0.2-0.1,0.4-0.2,0.6-0.3
		c0.4-0.3,0.9-0.5,1.3-0.8c0.7-0.5,1.4-1,2-1.6c0.4-0.4,0.8-0.9,1.2-1.4c0.2-0.3,0.3-0.5,0.5-0.8s0.3-0.6,0.5-0.9
		c0.1-0.2,0.1-0.3,0.2-0.5c0.2-0.3,0.3-0.7,0.4-1c1.7-4.3,2.6-11,2.6-19.9C600.7,39.1,598.7,30,594.6,24.3z M554,36.7
		c4,0,7.2,0.7,8.8,2.2c1.7,1.5,2.2,4.5,2.2,9.2v8.1c0,6.5-0.5,10.3-2.3,11.5c-1.7,1.2-4.7,1.8-8.7,1.8V36.7z M584.2,83L584.2,83
		l0.2,0.1C584.3,83,584.2,83,584.2,83z M584.6,83L584.6,83l-0.2,0.1c0.1,0,0.2,0.1,0.3,0.1c0,0,0,0,0.1,0L584.6,83z"/>
	<path id="XMLID_490_" class="st9" d="M599.9,98c-0.6-2.6-2.3-5.5-4.9-8.7c-2-2.4-5.4-4.4-10.1-6l-43.6,7.2l-6.9,67.5H554V92.2
		c5,0,8.2,0.9,9.4,2.8c1.2,1.9,1.6,6.7,1.6,14.6V158h27.9l8.1-23.7v-14.5C601,107.9,600.5,100.6,599.9,98z"/>
	<path id="XMLID_489_" class="st12" d="M599.9,98c-0.6-2.6-2.3-5.5-4.9-8.7c-2-2.4-5.4-4.4-10.1-6l-43.6,7.2l-6.9,67.5H554V92.2
		c5,0,8.2,0.9,9.4,2.8c1.2,1.9,1.6,6.7,1.6,14.6V158h27.9l8.1-23.7v-14.5C601,107.9,600.5,100.6,599.9,98z"/>
	<path id="XMLID_488_" class="st10" d="M704,92.4v-29c0-0.1,0-0.2,0-0.4l-22.2,3.8L704,92.4z"/>
	<path id="XMLID_445_" class="st10" d="M704,92.4v-29c0-0.1,0-0.2,0-0.4l-22.2,3.8L704,92.4z"/>
	<path id="XMLID_444_" class="st12" d="M696.3,22.4c-1.2-1.4-2.7-2.6-4.3-3.8l-10.7,47.5l0.5,0.5l22.2-3.8c0-13.7-0.4-22.9-1.3-27.6
		C701.8,30.6,699.7,26.3,696.3,22.4z"/>
	<path id="XMLID_437_" class="st11" d="M696.3,22.4c-1.2-1.4-2.7-2.6-4.3-3.8l-10.7,47.5l0.5,0.5l22.2-3.8c0-13.7-0.4-22.9-1.3-27.6
		C701.8,30.6,699.7,26.3,696.3,22.4z"/>
	<path id="XMLID_390_" class="st10" d="M681.2,66.9l-20.5,90.5l0.4,0.7h2.5c9.1,0,16-0.3,20.5-1.3s8.3-2.6,11.4-5.1
		c3.1-2.5,5.3-5.9,6.5-10.4c1.2-4.4,1.9-13.2,1.9-26.4V92.5l-22.2-25.7L681.2,66.9z"/>
	<path id="XMLID_389_" class="st12" d="M681.2,66.9l-20.5,90.5l0.4,0.7h2.5c9.1,0,16-0.3,20.5-1.3s8.3-2.6,11.4-5.1
		c3.1-2.5,5.3-5.9,6.5-10.4c1.2-4.4,1.9-13.2,1.9-26.4V92.5l-22.2-25.7L681.2,66.9z"/>
	<polygon id="XMLID_388_" class="st13" points="615,78.1 615,88.1 618.4,77.5 	"/>
	<polygon id="XMLID_384_" class="st12" points="615,78.1 615,88.1 618.4,77.5 	"/>
	<polygon id="XMLID_231_" class="st10" points="660.5,158.5 661.1,158.5 660.7,157.6 	"/>
	<polygon id="XMLID_203_" class="st12" points="660.5,158.5 661.1,158.5 660.7,157.6 	"/>
	<polygon id="XMLID_187_" class="st13" points="621.3,77.1 618.6,77.5 615,88.1 615,158 660.5,158 660.7,157.3 	"/>
	<polygon id="XMLID_182_" class="st10" points="621.3,77.1 618.6,77.5 615,88.1 615,158 660.5,158 660.7,157.3 	"/>
	<path id="XMLID_175_" class="st13" d="M654,36.7c0,0,1.3,0,2,0.1l-17.5-20.2L620,74.2l1.6,2.9l32.5-5.5L654,36.7L654,36.7z"/>
	<path id="XMLID_46_" class="st10" d="M654,36.7c0,0,1.3,0,2,0.1l-17.5-20.2L620,74.2l1.6,2.9l32.5-5.5L654,36.7L654,36.7z"/>
	<polygon id="XMLID_45_" class="st10" points="618.6,77.5 619.6,74.2 615,65 615,78.1 	"/>
	<polygon id="XMLID_44_" class="st11" points="618.6,77.5 619.6,74.2 615,65 615,78.1 	"/>
	<polygon id="XMLID_43_" class="st11" points="681.8,66.8 681.3,66.2 681.2,66.9 	"/>
	<polygon id="XMLID_34_" class="st13" points="681.8,66.8 681.3,66.2 681.2,66.9 	"/>
	<path id="XMLID_32_" class="st11" d="M666,112c0,9.8-0.6,15.8-1.9,18c-1.3,2.2-5.1,3.3-10.1,3.3V71.5L621.5,77l39.3,80.5l20.5-90.7
		L666,69.4V112z"/>
	<path id="XMLID_31_" class="st11" d="M666,112c0,9.8-0.6,15.8-1.9,18c-1.3,2.2-5.1,3.3-10.1,3.3V71.5L621.5,77l39.3,80.5l20.5-90.7
		L666,69.4V112z"/>
	<polygon id="XMLID_30_" class="st11" points="618.9,77.5 621.3,77.1 619.9,74.2 	"/>
	<polygon id="XMLID_26_" class="st12" points="618.9,77.5 621.3,77.1 619.9,74.2 	"/>
	<path id="XMLID_25_" class="st11" d="M666,54.9v14.6l15.3-2.6l0.1-0.7L665.8,48C665.9,50,666,52.2,666,54.9z"/>
	<path id="XMLID_22_" class="st10" d="M666,54.9v14.6l15.3-2.6l0.1-0.7L665.8,48C665.9,50,666,52.2,666,54.9z"/>
	<polygon id="XMLID_21_" class="st12" points="638.4,16.7 634.1,12 615,12 615,65 619.7,74.3 	"/>
	<polygon id="XMLID_9_" class="st11" points="638.4,16.7 634.1,12 615,12 615,65 619.7,74.3 	"/>
	<polygon id="XMLID_8_" class="st11" points="640,12 634.1,12 638.4,17 	"/>
	<polygon id="XMLID_7_" class="st13" points="640,12 634.1,12 638.4,17 	"/>
	<path id="XMLID_6_" class="st13" d="M655.9,36.7c3,0.1,5.1,0.6,6.3,1.3c1.5,0.9,2.5,2.3,2.9,4.1c0.3,1.1,0.4,3.1,0.5,5.9l15.7,18.2
		L692,18.7c-2.9-2-6.4-3.3-10.6-4.4c-6.5-1.7-19-2.3-37.4-2.3h-4l-1.6,4.7L655.9,36.7z"/>
	<path id="XMLID_5_" class="st12" d="M655.9,36.7c3,0.1,5.1,0.6,6.3,1.3c1.5,0.9,2.5,2.3,2.9,4.1c0.3,1.1,0.4,3.1,0.5,5.9l15.7,18.2
		L692,18.7c-2.9-2-6.4-3.3-10.6-4.4c-6.5-1.7-19-2.3-37.4-2.3h-4l-1.6,4.7L655.9,36.7z"/>
</g>
<g id="Layer_2">
	<polygon id="XMLID_1063_" class="st14" points="118.1,41.5 123.3,44.8 124.5,40.9 124.5,41.5 	"/>
	<polygon id="XMLID_1060_" class="st15" points="261.4,137.9 261.8,137.8 261.4,137.6 	"/>
	<path id="XMLID_1045_" class="st15" d="M454.6,106.5h13.2c-0.1-1-0.2-2.3-0.3-3.1l-12.8,2.5C454.6,106,454.6,106.5,454.6,106.5z"/>
	<polygon id="XMLID_1037_" class="st14" points="124.5,45.4 124.5,40.9 122.7,44.2 	"/>
	<path id="XMLID_1003_" class="st15" d="M28.5,12.2c-6.4,2.9-11.1,7-13.9,12.2c-2.3,4.1-3.7,10.2-4.1,18.2L46.8,8
		C39.8,8.4,33.7,9.8,28.5,12.2z"/>
	<path id="XMLID_1002_" class="st14" d="M28.5,12.2c-6.4,2.9-11.1,7-13.9,12.2c-2.3,4.1-3.7,10.2-4.1,18.2L46.8,8
		C39.8,8.4,33.7,9.8,28.5,12.2z"/>
	<path id="XMLID_1001_" class="st15" d="M45.5,106.5h-36v8.3c0,2.9,0.3,5.6,0.5,8.1l35.5-13.4V106.5z"/>
	<path id="XMLID_1000_" class="st14" d="M45.5,106.5h-36v8.3c0,2.9,0.3,5.6,0.5,8.1l35.5-13.4V106.5z"/>
	<path id="XMLID_999_" class="st14" d="M92.7,92l-36.3,13.9c0.5,0.5,1,0.9,1.4,1.3c2.4,2.7,3.5,8.3,3.5,17c0,3.9-0.6,6.9-1.9,8.9
		c-1.2,2-3.1,3-5.7,3s-5-0.8-6-2.4c-1-1.6-2.2-5.1-2.2-10.6v-13.6l-34.6,13.4c0.4,7.2,1.8,13,3.5,17.4c2.2,6,7.1,10.9,14.4,14.8
		c7.2,3.9,16,5.8,26.3,5.8c2.3,0,4.5-0.1,6.6-0.3L95,98.2C94.3,95.9,93.6,93.8,92.7,92z"/>
	<path id="XMLID_998_" class="st15" d="M92.7,92l-36.3,13.9c0.5,0.5,1,0.9,1.4,1.3c2.4,2.7,3.5,8.3,3.5,17c0,3.9-0.6,6.9-1.9,8.9
		c-1.2,2-3.1,3-5.7,3s-5-0.8-6-2.4c-1-1.6-2.2-5.1-2.2-10.6v-13.6l-34.6,13.4c0.4,7.2,1.8,13,3.5,17.4c2.2,6,7.1,10.9,14.4,14.8
		c7.2,3.9,16,5.8,26.3,5.8c2.3,0,4.5-0.1,6.6-0.3L95,98.2C94.3,95.9,93.6,93.8,92.7,92z"/>
	<path id="XMLID_997_" class="st14" d="M93.9,143.4c2.5-5,3.7-12.7,3.7-23.1c0-8.9-0.8-16.2-2.5-22.1l-33.3,62.4
		c6.6-0.6,12.6-2.2,17.9-4.7C86.7,152.5,91.4,148.4,93.9,143.4z"/>
	<path id="XMLID_996_" class="st15" d="M93.9,143.4c2.5-5,3.7-12.7,3.7-23.1c0-8.9-0.8-16.2-2.5-22.1l-33.3,62.4
		c6.6-0.6,12.6-2.2,17.9-4.7C86.7,152.5,91.4,148.4,93.9,143.4z"/>
	<path id="XMLID_995_" class="st16" d="M90.9,88.9C86.5,82.4,75.8,74.1,58.8,64c-5.9-3.5-9.5-6.5-10.8-9s-2-6.2-2-11.1
		c0-3.8,0.6-6.7,1.8-8.5c1.2-1.9,2.9-2.8,5.2-2.8c2.1,0,2.9,0.7,3.8,2.1s0.7,4.6,0.7,9.7v12h35v-6.9c0-11.7-0.2-19.9-2.5-24.8
		c-0.9-2-1.8-3.8-3.4-5.5L77.5,13c-0.2-0.1-0.3-0.2-0.6-0.3c-7-3.2-15.4-4.8-25.3-4.8c-1.7,0-3.3,0.1-4.9,0.2L10.4,42.6
		c-0.1,2-0.2,4.2-0.2,6.5c0,7.8,1,14.2,3,19.2c2,5,4.6,9,7.7,11.8s9.4,7.4,18.9,13.7c8.1,5.3,13.6,9.3,16.5,12l36.3-13.9
		C92.1,90.9,91.5,89.9,90.9,88.9z"/>
	<path id="XMLID_994_" class="st14" d="M90.9,88.9C86.5,82.4,75.8,74.1,58.8,64c-5.9-3.5-9.5-6.5-10.8-9s-2-6.2-2-11.1
		c0-3.8,0.6-6.7,1.8-8.5c1.2-1.9,2.9-2.8,5.2-2.8c2.1,0,2.9,0.7,3.8,2.1s0.7,4.6,0.7,9.7v12h35v-6.9c0-11.7-0.2-19.9-2.5-24.8
		c-0.9-2-1.8-3.8-3.4-5.5L77.5,13c-0.2-0.1-0.3-0.2-0.6-0.3c-7-3.2-15.4-4.8-25.3-4.8c-1.7,0-3.3,0.1-4.9,0.2L10.4,42.6
		c-0.1,2-0.2,4.2-0.2,6.5c0,7.8,1,14.2,3,19.2c2,5,4.6,9,7.7,11.8s9.4,7.4,18.9,13.7c8.1,5.3,13.6,9.3,16.5,12l36.3-13.9
		C92.1,90.9,91.5,89.9,90.9,88.9z"/>
	<path id="XMLID_993_" class="st14" d="M87.1,19.3c-2.4-2.4-5.5-4.5-9.3-6.3L87.1,19.3z"/>
	<path id="XMLID_992_" class="st17" d="M87.1,19.3c-2.4-2.4-5.5-4.5-9.3-6.3L87.1,19.3z"/>
	<polygon id="XMLID_991_" class="st14" points="124.5,41.5 124.5,40.9 141.6,12.5 101.5,12.5 101.5,30.1 118.1,41.5 	"/>
	<polygon id="XMLID_990_" class="st17" points="124.5,41.5 124.5,40.9 141.6,12.5 101.5,12.5 101.5,30.1 118.1,41.5 	"/>
	<polygon id="XMLID_989_" class="st15" points="118.1,41.5 101.5,30.1 101.5,41.5 	"/>
	<polygon id="XMLID_988_" class="st16" points="118.1,41.5 101.5,30.1 101.5,41.5 	"/>
	<polygon id="XMLID_987_" class="st15" points="156.5,67.2 124.5,79.4 124.5,158.5 144.6,158.5 162.5,154.6 162.5,71.3 	"/>
	<polygon id="XMLID_986_" class="st14" points="156.5,67.2 124.5,79.4 124.5,158.5 144.6,158.5 162.5,154.6 162.5,71.3 	"/>
	<polygon id="XMLID_985_" class="st16" points="162.5,158.5 162.5,154.6 144.6,158.5 	"/>
	<polygon id="XMLID_984_" class="st15" points="162.5,158.5 162.5,154.6 144.6,158.5 	"/>
	<polygon id="XMLID_983_" class="st15" points="156.4,67.2 162.5,71.3 162.5,64.9 	"/>
	<polygon id="XMLID_982_" class="st15" points="156.4,67.2 162.5,71.3 162.5,64.9 	"/>
	<polygon id="XMLID_981_" class="st17" points="124.5,79.4 156.6,67.2 124.5,45.4 	"/>
	<polygon id="XMLID_980_" class="st15" points="124.5,79.4 156.6,67.2 124.5,45.4 	"/>
	<polygon id="XMLID_979_" class="st14" points="162.5,41.5 184.5,41.5 184.5,12.5 141.6,12.5 124.5,40.9 124.5,45.4 156.5,67.2 
		162.5,64.9 	"/>
	<polygon id="XMLID_978_" class="st14" points="162.5,41.5 184.5,41.5 184.5,12.5 141.6,12.5 124.5,40.9 124.5,45.4 156.5,67.2 
		162.5,64.9 	"/>
	<polygon id="XMLID_977_" class="st15" points="193.5,158.5 259.5,158.5 259.5,137.9 193.5,149.2 	"/>
	<polygon id="XMLID_976_" class="st14" points="193.5,158.5 259.5,158.5 259.5,137.9 193.5,149.2 	"/>
	<polygon id="XMLID_975_" class="st14" points="259.5,129.5 247.9,129.5 259.5,137.6 	"/>
	<polygon id="XMLID_974_" class="st15" points="259.5,129.5 247.9,129.5 259.5,137.6 	"/>
	<polygon id="XMLID_973_" class="st15" points="255.1,29.5 257.5,28.6 257.5,25 	"/>
	<polygon id="XMLID_972_" class="st15" points="255.1,29.5 257.5,28.6 257.5,25 	"/>
	<polygon id="XMLID_971_" class="st14" points="231.5,118.6 231.5,97.5 255.5,97.5 255.5,69.5 235.6,69.5 214.1,106.8 	"/>
	<polygon id="XMLID_970_" class="st15" points="231.5,118.6 231.5,97.5 255.5,97.5 255.5,69.5 235.6,69.5 214.1,106.8 	"/>
	<polygon id="XMLID_969_" class="st16" points="193.5,52.9 193.5,92.6 214.2,106.8 235.6,69.5 231.5,69.5 231.5,41.5 250.6,41.5 
		255.6,30.1 	"/>
	<polygon id="XMLID_968_" class="st15" points="193.5,52.9 193.5,92.6 214.2,106.8 235.6,69.5 231.5,69.5 231.5,41.5 250.6,41.5 
		255.6,30.1 	"/>
	<polygon id="XMLID_967_" class="st16" points="247.9,129.5 231.5,129.5 231.5,118.6 213.3,106.1 193.5,143 193.5,149.2 
		259.5,137.9 259.5,137.6 	"/>
	<polygon id="XMLID_966_" class="st16" points="247.9,129.5 231.5,129.5 231.5,118.6 213.3,106.1 193.5,143 193.5,149.2 
		259.5,137.9 259.5,137.6 	"/>
	<polygon id="XMLID_965_" class="st15" points="250.6,41.5 257.5,41.5 257.5,28.6 255.8,30.1 	"/>
	<polygon id="XMLID_964_" class="st15" points="250.6,41.5 257.5,41.5 257.5,28.6 255.8,30.1 	"/>
	<polygon id="XMLID_963_" class="st16" points="193.5,143 213.4,106.1 193.5,92.6 	"/>
	<polygon id="XMLID_962_" class="st14" points="193.5,143 213.4,106.1 193.5,92.6 	"/>
	<polygon id="XMLID_961_" class="st15" points="257.5,25 257.5,12.5 193.5,12.5 193.5,52.9 254.9,29.5 	"/>
	<polygon id="XMLID_959_" class="st14" points="301.9,12.5 266.5,12.5 265.1,14.3 266.5,26.1 302,13.1 	"/>
	<polygon id="XMLID_958_" class="st16" points="301.9,12.5 266.5,12.5 265.1,14.3 266.5,26.1 302,13.1 	"/>
	<path id="XMLID_957_" class="st14" d="M309.9,112.5l-3.9-50l-4-50.2l-35.5,13.4l12.7,109.2l42.5-6.5l16.9-116h-18.2
		C314.8,53.5,311.3,86.9,309.9,112.5z"/>
	<path id="XMLID_956_" class="st17" d="M309.9,112.5l-3.9-50l-4-50.2l-35.5,13.4l12.7,109.2l42.5-6.5l16.9-116h-18.2
		C314.8,53.5,311.3,86.9,309.9,112.5z"/>
	<path id="XMLID_955_" class="st16" d="M317.4,158.5h12c1.7-12,3.2-23.1,4.6-32.6l-12.2,2.2L317.4,158.5z"/>
	<path id="XMLID_954_" class="st16" d="M317.4,158.5h12c1.7-12,3.2-23.1,4.6-32.6l-12.2,2.2L317.4,158.5z"/>
	<path id="XMLID_953_" class="st17" d="M351.5,158.5h47.7l5.1-44.6l-58.7,10.2C347.5,136.2,349.5,148.5,351.5,158.5z"/>
	<path id="XMLID_952_" class="st14" d="M351.5,158.5h47.7l5.1-44.6l-58.7,10.2C347.5,136.2,349.5,148.5,351.5,158.5z"/>
	<path id="XMLID_951_" class="st15" d="M379.1,12.5c-4.9,34-8.5,68-10.7,103.6l-4.2-55.5c-2.3-28-3.6-44.1-4.2-48.1h-21.5
		l-16.9,115.9l12.2-2.5c3-21.3,5-36.4,6.1-45c1.8,15.1,3.7,29.3,5.7,42.7l58.7-9.3l11.9-101.9L379.1,12.5L379.1,12.5z"/>
	<path id="XMLID_950_" class="st14" d="M379.1,12.5c-4.9,34-8.5,68-10.7,103.6l-4.2-55.5c-2.3-28-3.6-44.1-4.2-48.1h-21.5
		l-16.9,115.9l12.2-2.5c3-21.3,5-36.4,6.1-45c1.8,15.1,3.7,29.3,5.7,42.7l58.7-9.3l11.9-101.9L379.1,12.5L379.1,12.5z"/>
	<polygon id="XMLID_949_" class="st15" points="279.2,134.9 281.1,151.2 291.3,158.5 317.4,158.5 321.7,128 	"/>
	<polygon id="XMLID_948_" class="st14" points="279.2,134.9 281.1,151.2 291.3,158.5 317.4,158.5 321.7,128 	"/>
	<polygon id="XMLID_947_" class="st15" points="264.8,12.5 265.1,15.1 266.5,12.5 	"/>
	<polygon id="XMLID_946_" class="st15" points="264.8,12.5 265.1,15.1 266.5,12.5 	"/>
	<polygon id="XMLID_945_" class="st16" points="281.9,158.5 291.3,158.5 281.1,151.6 	"/>
	<polygon id="XMLID_944_" class="st17" points="281.9,158.5 291.3,158.5 281.1,151.6 	"/>
	<polygon id="XMLID_943_" class="st14" points="484.9,99.8 505.5,128.1 500.8,97.1 	"/>
	<polygon id="XMLID_942_" class="st14" points="484.9,99.8 505.5,128.1 500.8,97.1 	"/>
	<polygon id="XMLID_941_" class="st17" points="449,50.3 430.9,25.3 419.5,111 428.7,109.4 	"/>
	<polygon id="XMLID_940_" class="st14" points="449,50.3 430.9,25.3 419.5,111 428.7,109.4 	"/>
	<path id="XMLID_939_" class="st15" d="M467.5,103.4c0.1,0.9,0.2,2.1,0.3,3.1h-13.2c0,0,0-0.8,0-0.9l-26,4.1l-14.5,42.2l-0.9,6.6
		h39.5l2.3-26h13.7l2.1,26h39l-4.4-30l-20.5-28.2L467.5,103.4z"/>
	<path id="XMLID_938_" class="st14" d="M467.5,103.4c0.1,0.9,0.2,2.1,0.3,3.1h-13.2c0,0,0-0.8,0-0.9l-26,4.1l-14.5,42.2l-0.9,6.6
		h39.5l2.3-26h13.7l2.1,26h39l-4.4-30l-20.5-28.2L467.5,103.4z"/>
	<polygon id="XMLID_937_" class="st14" points="419.5,111 414.2,151.4 428.7,109.4 	"/>
	<polygon id="XMLID_936_" class="st15" points="419.5,111 414.2,151.4 428.7,109.4 	"/>
	<polygon id="XMLID_935_" class="st15" points="432.8,12.5 430.9,26.1 449,51.6 462.7,12.5 	"/>
	<polygon id="XMLID_934_" class="st15" points="432.8,12.5 430.9,26.1 449,51.6 462.7,12.5 	"/>
	<path id="XMLID_933_" class="st16" d="M467.5,102.8l17.5-3l-20.6-28.4C465.4,83,466.4,93.5,467.5,102.8z"/>
	<path id="XMLID_932_" class="st14" d="M467.5,102.8l17.5-3l-20.6-28.4C465.4,83,466.4,93.5,467.5,102.8z"/>
	<path id="XMLID_931_" class="st17" d="M462.7,12.5L449,51.1l10.1,13.6c0.8-6.4,1.7-13.4,2.8-20.9c0.8,9.9,1.6,19,2.4,27.6
		l20.6,28.4l15.9-1.9L488,12.5H462.7z"/>
	<path id="XMLID_929_" class="st16" d="M449,50.3l-20.4,59.1l26-4.4c0.7-9.6,2.3-23.1,4.5-40.7L449,50.3z"/>
	<path id="XMLID_928_" class="st16" d="M449,50.3l-20.4,59.1l26-4.4c0.7-9.6,2.3-23.1,4.5-40.7L449,50.3z"/>
	<polygon id="XMLID_927_" class="st15" points="514.5,158.5 527,158.5 514.5,143.2 	"/>
	<polygon id="XMLID_926_" class="st14" points="514.5,158.5 527,158.5 514.5,143.2 	"/>
	<polygon id="XMLID_924_" class="st16" points="600.5,158.5 600.5,133.6 593.9,158.5 	"/>
	<polygon id="XMLID_922_" class="st16" points="600.5,158.5 600.5,133.6 593.9,158.5 	"/>
	<polygon id="XMLID_920_" class="st14" points="514.5,94.5 514.5,143.2 527,158.5 535.3,158.5 541.2,90.4 	"/>
	<polygon id="XMLID_918_" class="st14" points="514.5,94.5 514.5,143.2 527,158.5 535.3,158.5 541.2,90.4 	"/>
	<path id="XMLID_916_" class="st15" d="M543.4,12.5h-28.9v82l26.7-4.4l8.5-78.3C547.6,11.7,545.8,12.5,543.4,12.5z"/>
	<path id="XMLID_914_" class="st14" d="M543.4,12.5h-28.9v82l26.7-4.4l8.5-78.3C547.6,11.7,545.8,12.5,543.4,12.5z"/>
	<path id="XMLID_902_" class="st14" d="M595.6,23.7c-4-5.7-9.2-9.3-15.6-10.7c-0.4-0.1-0.7-0.2-1.1-0.2s-0.8-0.1-1.2-0.2
		c-0.2,0-0.4-0.1-0.6-0.1c-0.4-0.1-0.9-0.1-1.3-0.2c-0.5-0.1-1,0.1-1.5,0c-3.8-0.4-8.6-0.7-14.4-0.8c-0.6,0-1.2,0-1.8,0
		s-1.2,0-1.9,0c-1.3,0-2.6,0.5-3.9,0.5c-0.7,0-1.4,0.6-2.1,0.6l0,0V12l-8,78.2l0,0V91l28.8-4.4l0,0l7.1-2l0.2-0.3l6.2-0.8v0.2h0.1
		l0.5-0.6c-1.1-0.4-2.4-0.4-3.6-0.7c0,0,0,0.3-0.1,0.3l0,0l0,0l0,0h-0.1c-0.2,0-0.4,0-0.6-0.1v0.1l0,0V82c0.1,0,0.2-0.3,0.3-0.3
		c2.9-0.3,5.4-1,7.6-1.6c0.3-0.1,0.5-0.3,0.8-0.3c0,0,0.1-0.1,0.2-0.1c0.2,0,0.3-0.1,0.4-0.2c0.3-0.1,0.6-0.2,0.9-0.3
		c0.2-0.1,0.4-0.2,0.6-0.3l0,0c0.1,0,0.2-0.1,0.3-0.1c0.2-0.1,0.4-0.2,0.6-0.3c0.1,0,0.1-0.1,0.2-0.1c0.2-0.1,0.4-0.2,0.6-0.3
		c0.4-0.3,0.9-0.5,1.3-0.8c0.7-0.5,1.4-1,2-1.6c0.4-0.4,0.8-0.9,1.2-1.4c0.2-0.3,0.3-0.5,0.5-0.8s0.3-0.6,0.5-0.9
		c0.1-0.2,0.1-0.3,0.2-0.5c0.2-0.3,0.3-0.7,0.4-1c1.7-4.3,2.6-11,2.6-19.9C601.7,38.5,599.7,29.4,595.6,23.7z M553.5,36
		c4,0,7.2,0.7,8.8,2.2c1.7,1.5,2.2,4.5,2.2,9.2v8.1c0,6.5-0.5,10.3-2.3,11.5c-1.7,1.2-4.7,1.8-8.7,1.8V36z M585.2,82.3L585.2,82.3
		l0.2,0.1C585.3,82.4,585.2,82.4,585.2,82.3z M585.6,82.4L585.6,82.4l-0.2,0.1c0.1,0,0.2,0.1,0.3,0.1c0,0,0,0,0.1,0L585.6,82.4z"/>
	<path id="XMLID_890_" class="st14" d="M595.6,23.7c-4-5.7-9.2-9.3-15.6-10.7c-0.4-0.1-0.7-0.2-1.1-0.2s-0.8-0.1-1.2-0.2
		c-0.2,0-0.4-0.1-0.6-0.1c-0.4-0.1-0.9-0.1-1.3-0.2c-0.5-0.1-1,0.1-1.5,0c-3.8-0.4-8.6-0.7-14.4-0.8c-0.6,0-1.2,0-1.8,0
		s-1.2,0-1.9,0c-1.3,0-2.6,0.5-3.9,0.5c-0.7,0-1.4,0.6-2.1,0.6l0,0V12l-8,78.2l0,0V91l28.8-4.4l0,0l7.1-2l0.2-0.3l6.2-0.8v0.2h0.1
		l0.5-0.6c-1.1-0.4-2.4-0.4-3.6-0.7c0,0,0,0.3-0.1,0.3l0,0l0,0l0,0h-0.1c-0.2,0-0.4,0-0.6-0.1v0.1l0,0V82c0.1,0,0.2-0.3,0.3-0.3
		c2.9-0.3,5.4-1,7.6-1.6c0.3-0.1,0.5-0.3,0.8-0.3c0,0,0.1-0.1,0.2-0.1c0.2,0,0.3-0.1,0.4-0.2c0.3-0.1,0.6-0.2,0.9-0.3
		c0.2-0.1,0.4-0.2,0.6-0.3l0,0c0.1,0,0.2-0.1,0.3-0.1c0.2-0.1,0.4-0.2,0.6-0.3c0.1,0,0.1-0.1,0.2-0.1c0.2-0.1,0.4-0.2,0.6-0.3
		c0.4-0.3,0.9-0.5,1.3-0.8c0.7-0.5,1.4-1,2-1.6c0.4-0.4,0.8-0.9,1.2-1.4c0.2-0.3,0.3-0.5,0.5-0.8s0.3-0.6,0.5-0.9
		c0.1-0.2,0.1-0.3,0.2-0.5c0.2-0.3,0.3-0.7,0.4-1c1.7-4.3,2.6-11,2.6-19.9C601.7,38.5,599.7,29.4,595.6,23.7z M553.5,36
		c4,0,7.2,0.7,8.8,2.2c1.7,1.5,2.2,4.5,2.2,9.2v8.1c0,6.5-0.5,10.3-2.3,11.5c-1.7,1.2-4.7,1.8-8.7,1.8V36z M585.2,82.3L585.2,82.3
		l0.2,0.1C585.3,82.4,585.2,82.4,585.2,82.3z M585.6,82.4L585.6,82.4l-0.2,0.1c0.1,0,0.2,0.1,0.3,0.1c0,0,0,0,0.1,0L585.6,82.4z"/>
	<path id="XMLID_888_" class="st17" d="M600.1,97.3c-0.6-2.6-2-5.5-4.6-8.7c-2-2.4-5.2-4.4-9.9-6l-43.5,7.8l-6.8,68.1h18.2V91.6
		c5,0,8.2,0.9,9.4,2.8s1.6,6.7,1.6,14.6v49.5h29.4l6.6-24.9v-14.5C600.5,107.2,600.8,100,600.1,97.3z"/>
	<path id="XMLID_886_" class="st16" d="M600.1,97.3c-0.6-2.6-2-5.5-4.6-8.7c-2-2.4-5.2-4.4-9.9-6l-43.5,7.8l-6.8,68.1h18.2V91.6
		c5,0,8.2,0.9,9.4,2.8s1.6,6.7,1.6,14.6v49.5h29.4l6.6-24.9v-14.5C600.5,107.2,600.8,100,600.1,97.3z"/>
	<path id="XMLID_884_" class="st17" d="M703.5,91.8V62.7c0-0.1,0-0.2,0-0.4l-22.2,3.8L703.5,91.8z"/>
	<path id="XMLID_882_" class="st15" d="M703.5,91.8V62.7c0-0.1,0-0.2,0-0.4l-22.2,3.8L703.5,91.8z"/>
	<path id="XMLID_880_" class="st17" d="M697.3,21.8c-1.2-1.4-2.7-2.6-4.3-3.8l-10.7,47.5l0.5,0.5l22.2-3.8c0-13.7-0.4-22.9-1.3-27.6
		C702.8,30,700.7,25.7,697.3,21.8z"/>
	<path id="XMLID_878_" class="st15" d="M697.3,21.8c-1.2-1.4-2.7-2.6-4.3-3.8l-10.7,47.5l0.5,0.5l22.2-3.8c0-13.7-0.4-22.9-1.3-27.6
		C702.8,30,700.7,25.7,697.3,21.8z"/>
	<path id="XMLID_876_" class="st15" d="M682.2,66.2l-20.5,91.1l0.4,1.2h2.5c9.1,0,16-0.8,20.5-1.8s8.3-2.9,11.4-5.4
		c3.1-2.5,4.5-6.1,5.8-10.5c1.2-4.4,1.1-13.3,1.1-26.5V91.9L682,66.2H682.2z"/>
	<path id="XMLID_874_" class="st15" d="M682.2,66.2l-20.5,91.1l0.4,1.2h2.5c9.1,0,16-0.8,20.5-1.8s8.3-2.9,11.4-5.4
		c3.1-2.5,4.5-6.1,5.8-10.5c1.2-4.4,1.1-13.3,1.1-26.5V91.9L682,66.2H682.2z"/>
	<polygon id="XMLID_872_" class="st15" points="614.5,77.4 614.5,87.4 617.9,76.8 	"/>
	<polygon id="XMLID_870_" class="st14" points="614.5,77.4 614.5,87.4 617.9,76.8 	"/>
	<polygon id="XMLID_868_" class="st16" points="661.5,157.8 662.1,157.8 661.7,156.9 	"/>
	<polygon id="XMLID_866_" class="st14" points="661.5,157.8 662.1,157.8 661.7,156.9 	"/>
	<polygon id="XMLID_864_" class="st16" points="622.3,76.4 618.9,76.8 614.5,87.4 614.5,158.5 661.5,158.5 661.7,157.3 	"/>
	<polygon id="XMLID_862_" class="st14" points="622.3,76.4 618.9,76.8 614.5,87.4 614.5,158.5 661.5,158.5 661.7,157.3 	"/>
	<path id="XMLID_860_" class="st14" d="M653.5,36c0,0,2.1,0,2.8,0.1l-17.2-20.2l-18.3,57.7l0.9,2.9l31.8-5.5V36z"/>
	<path id="XMLID_858_" class="st14" d="M653.5,36c0,0,2.1,0,2.8,0.1l-17.2-20.2l-18.3,57.7l0.9,2.9l31.8-5.5V36z"/>
	<polygon id="XMLID_856_" class="st14" points="618.9,76.8 619.5,73.5 614.5,64.4 614.5,77.4 	"/>
	<polygon id="XMLID_854_" class="st14" points="618.9,76.8 619.5,73.5 614.5,64.4 614.5,77.4 	"/>
	<polygon id="XMLID_852_" class="st16" points="682.8,66.1 682.3,65.6 682.2,66.2 	"/>
	<polygon id="XMLID_850_" class="st16" points="682.8,66.1 682.3,65.6 682.2,66.2 	"/>
	<path id="XMLID_848_" class="st14" d="M665.5,111.4c0,9.8-0.6,15.8-1.9,18c-1.3,2.2-5.1,3.3-10.1,3.3V70.9l-31.7,5.5l39.7,80.5
		l20-90.7l-15.9,2.6L665.5,111.4L665.5,111.4z"/>
	<path id="XMLID_846_" class="st14" d="M665.5,111.4c0,9.8-0.6,15.8-1.9,18c-1.3,2.2-5.1,3.3-10.1,3.3V70.9l-31.7,5.5l39.7,80.5
		l20-90.7l-15.9,2.6L665.5,111.4L665.5,111.4z"/>
	<polygon id="XMLID_844_" class="st15" points="619.9,76.8 622.3,76.4 620.9,73.5 	"/>
	<polygon id="XMLID_842_" class="st14" points="619.9,76.8 622.3,76.4 620.9,73.5 	"/>
	<path id="XMLID_840_" class="st17" d="M665.5,54.3v14.6l16-2.6l0.5-0.7l-16.1-18.2C665.9,49.3,665.5,51.6,665.5,54.3z"/>
	<path id="XMLID_838_" class="st17" d="M665.5,54.3v14.6l16-2.6l0.5-0.7l-16.1-18.2C665.9,49.3,665.5,51.6,665.5,54.3z"/>
	<polygon id="XMLID_836_" class="st17" points="639.4,16.7 635.1,12.5 614.5,12.5 614.5,64.4 619.9,73.9 	"/>
	<polygon id="XMLID_834_" class="st15" points="639.4,16.7 635.1,12.5 614.5,12.5 614.5,64.4 619.9,73.9 	"/>
	<polygon id="XMLID_832_" class="st17" points="641,12.5 635.1,12.5 639.4,17.5 	"/>
	<polygon id="XMLID_830_" class="st16" points="641,12.5 635.1,12.5 639.4,17.5 	"/>
	<path id="XMLID_828_" class="st14" d="M656.9,36.1c3,0.1,5.1,0.6,6.3,1.3c1.5,0.9,2.5,2.3,2.9,4.1c0.3,1.1,0.4,3.1,0.5,5.9
		l15.7,18.2L693,18c-2.9-2-6.4-2.7-10.6-3.8c-6.5-1.7-19-1.7-37.4-1.7h-4l-1.6,4.2L656.9,36.1z"/>
	<path id="XMLID_826_" class="st15" d="M656.9,36.1c3,0.1,5.1,0.6,6.3,1.3c1.5,0.9,2.5,2.3,2.9,4.1c0.3,1.1,0.4,3.1,0.5,5.9
		l15.7,18.2L693,18c-2.9-2-6.4-2.7-10.6-3.8c-6.5-1.7-19-1.7-37.4-1.7h-4l-1.6,4.2L656.9,36.1z"/>
</g>
</svg>
